<?xml version="1.0" encoding="iso-8859-1"?>
<!-- Generator: Adobe Illustrator 18.0.0, SVG Export Plug-In . SVG Version: 6.00 Build 0)  -->
<!DOCTYPE svg PUBLIC "-//W3C//DTD SVG 1.1//EN" "http://www.w3.org/Graphics/SVG/1.1/DTD/svg11.dtd">
<svg version="1.1" id="Capa_1" xmlns="http://www.w3.org/2000/svg" xmlns:xlink="http://www.w3.org/1999/xlink" x="0px" y="0px"
	 viewBox="0 0 444.48 444.48" style="enable-background:new 0 0 444.48 444.48;" xml:space="preserve">
<g>
	<path style="fill:#fff" d="M233.513,165.996c0,3.038,2.463,5.5,5.5,5.5h143.091c3.037,0,5.5-2.462,5.5-5.5V76.857c0-3.038-2.463-5.5-5.5-5.5H239.013
		c-3.037,0-5.5,2.462-5.5,5.5V165.996z M244.513,82.357h132.091v78.138H244.513V82.357z"/>
	<path style="fill:#fff" d="M348.754,95.839c-2.146-2.147-5.631-2.147-7.777,0l-39.508,39.507l-22.501-22.5c-2.146-2.147-5.63-2.148-7.777,0
		l-17.007,17.006c-2.148,2.148-2.148,5.63,0,7.778c2.146,2.147,5.63,2.148,7.777,0l13.118-13.117l22.501,22.5
		c1.073,1.074,2.481,1.611,3.889,1.611s2.815-0.537,3.889-1.611l39.508-39.507l14.291,14.291c2.146,2.147,5.631,2.147,7.777,0
		c2.148-2.148,2.148-5.63,0-7.778L348.754,95.839z"/>
	<path style="fill:#fff" d="M314.995,262.453c-30.024,0-54.45,24.426-54.45,54.451s24.426,54.451,54.45,54.451s54.45-24.426,54.45-54.451
		S345.02,262.453,314.995,262.453z M358.085,311.403h-40.812l-28.846-28.845c7.352-5.7,16.567-9.105,26.568-9.105
		C337.09,273.453,355.372,290.033,358.085,311.403z M271.545,316.903c0-10.001,3.405-19.216,9.104-26.568l27.91,27.91
		l-14.433,36.756C280.68,347.606,271.545,333.303,271.545,316.903z M314.995,360.354c-3.668,0-7.23-0.462-10.635-1.321
		l14.384-36.629h39.341C355.372,343.773,337.09,360.354,314.995,360.354z"/>
	<path style="fill:#fff" d="M125.232,264.793h42.618c1.965,0,3.781-1.048,4.763-2.75s0.982-3.798,0-5.5l-39.568-68.534
		c-0.982-1.702-2.798-2.75-4.763-2.75s-3.781,1.048-4.763,2.75l-16.546,28.658l-5.905-10.229c-0.982-1.702-2.798-2.75-4.763-2.75
		c-1.965,0-3.781,1.048-4.763,2.75l-28.927,50.108c-0.982,1.702-0.982,3.798,0,5.5s2.798,2.75,4.763,2.75h57.854V264.793z
		 M128.282,201.759l30.042,52.034H98.241L128.282,201.759z M96.305,220.188l4.317,7.479l-15.085,26.128h-8.633L96.305,220.188z"/>
	<path style="fill:#fff" d="M98.81,119.286h100.146c3.038,0,5.5-2.462,5.5-5.5s-2.462-5.5-5.5-5.5H98.81c-3.038,0-5.5,2.462-5.5,5.5
		S95.772,119.286,98.81,119.286z"/>
	<path style="fill:#fff" d="M58.752,119.286h22.533c3.038,0,5.5-2.462,5.5-5.5s-2.462-5.5-5.5-5.5H58.752c-3.038,0-5.5,2.462-5.5,5.5
		S55.714,119.286,58.752,119.286z"/>
	<path style="fill:#fff" d="M204.455,135.067c0-3.038-2.462-5.5-5.5-5.5H58.752c-3.038,0-5.5,2.462-5.5,5.5s2.462,5.5,5.5,5.5h140.204
		C201.993,140.567,204.455,138.104,204.455,135.067z"/>
	<path d="M269.057,208.887c-3.037,0-5.5,2.462-5.5,5.5s2.463,5.5,5.5,5.5h100.146c3.037,0,5.5-2.462,5.5-5.5s-2.463-5.5-5.5-5.5
		H269.057z"/>
	<path style="fill:#fff" d="M228.999,219.887h22.532c3.037,0,5.5-2.462,5.5-5.5s-2.463-5.5-5.5-5.5h-22.532c-3.037,0-5.5,2.462-5.5,5.5
		S225.962,219.887,228.999,219.887z"/>
	<path style="fill:#fff" d="M228.999,241.168h140.203c3.037,0,5.5-2.462,5.5-5.5s-2.463-5.5-5.5-5.5H228.999c-3.037,0-5.5,2.462-5.5,5.5
		S225.962,241.168,228.999,241.168z"/>
	<path style="fill:#fff" d="M215.229,300.763H115.083c-3.038,0-5.5,2.462-5.5,5.5s2.462,5.5,5.5,5.5h100.146c3.038,0,5.5-2.462,5.5-5.5
		S218.266,300.763,215.229,300.763z"/>
	<path style="fill:#fff" d="M75.025,300.763c-3.038,0-5.5,2.462-5.5,5.5s2.462,5.5,5.5,5.5h22.533c3.038,0,5.5-2.462,5.5-5.5s-2.462-5.5-5.5-5.5
		H75.025z"/>
	<path style="fill:#fff" d="M215.229,322.044H75.025c-3.038,0-5.5,2.462-5.5,5.5s2.462,5.5,5.5,5.5h140.204c3.038,0,5.5-2.462,5.5-5.5
		S218.266,322.044,215.229,322.044z"/>
	<path style="fill:#fff" d="M411.23,0H93.26c-1.458,0-2.857,0.58-3.889,1.61l-60.01,60c-1.032,1.032-1.611,2.431-1.611,3.89v373.48
		c0,3.038,2.462,5.5,5.5,5.5h317.763c1.455,0,2.852-0.577,3.882-1.604l60.217-60c1.036-1.032,1.618-2.434,1.618-3.896V5.5
		C416.73,2.462,414.267,0,411.23,0z M87.76,18.777V60H46.53L87.76,18.777z M38.75,71h54.51c3.038,0,5.5-2.462,5.5-5.5V11h306.97
		v362.48h-54.51c-3.037,0-5.5,2.462-5.5,5.5v54.5H38.75V71z M397.917,384.48l-41.198,41.049V384.48H397.917z"/>
	<path style="fill:#fff" d="M200.24,408.897h-42c-3.038,0-5.5,2.462-5.5,5.5s2.462,5.5,5.5,5.5h42c3.038,0,5.5-2.462,5.5-5.5
		S203.278,408.897,200.24,408.897z"/>
	<path style="fill:#fff" d="M286.24,408.897h-42c-3.037,0-5.5,2.462-5.5,5.5s2.463,5.5,5.5,5.5h42c3.037,0,5.5-2.462,5.5-5.5
		S289.278,408.897,286.24,408.897z"/>
	<path style="fill:#fff" d="M214.973,401.063c-3.038,0-5.5,2.462-5.5,5.5v12.667c0,3.038,2.462,5.5,5.5,5.5s5.5-2.462,5.5-5.5v-12.667
		C220.473,403.526,218.011,401.063,214.973,401.063z"/>
	<path style="fill:#fff" d="M229.507,401.063c-3.037,0-5.5,2.462-5.5,5.5v12.667c0,3.038,2.463,5.5,5.5,5.5s5.5-2.462,5.5-5.5v-12.667
		C235.007,403.526,232.544,401.063,229.507,401.063z"/>
	<path style="fill:#fff" d="M158.24,38.582h42c3.038,0,5.5-2.462,5.5-5.5s-2.462-5.5-5.5-5.5h-42c-3.038,0-5.5,2.462-5.5,5.5
		S155.202,38.582,158.24,38.582z"/>
	<path style="fill:#fff" d="M244.24,38.582h42c3.037,0,5.5-2.462,5.5-5.5s-2.463-5.5-5.5-5.5h-42c-3.037,0-5.5,2.462-5.5,5.5
		S241.203,38.582,244.24,38.582z"/>
	<path style="fill:#fff" d="M214.973,43.416c3.038,0,5.5-2.462,5.5-5.5V25.249c0-3.038-2.462-5.5-5.5-5.5s-5.5,2.462-5.5,5.5v12.667
		C209.473,40.954,211.936,43.416,214.973,43.416z"/>
	<path style="fill:#fff" d="M229.507,43.416c3.037,0,5.5-2.462,5.5-5.5V25.249c0-3.038-2.463-5.5-5.5-5.5s-5.5,2.462-5.5,5.5v12.667
		C224.007,40.954,226.47,43.416,229.507,43.416z"/>
</g>
<g>
</g>
<g>
</g>
<g>
</g>
<g>
</g>
<g>
</g>
<g>
</g>
<g>
</g>
<g>
</g>
<g>
</g>
<g>
</g>
<g>
</g>
<g>
</g>
<g>
</g>
<g>
</g>
<g>
</g>
</svg>
