<?xml version="1.0" encoding="iso-8859-1"?>
<!-- Generator: Adobe Illustrator 19.0.0, SVG Export Plug-In . SVG Version: 6.00 Build 0)  -->
<svg version="1.1" id="Capa_1" xmlns="http://www.w3.org/2000/svg" xmlns:xlink="http://www.w3.org/1999/xlink" x="0px" y="0px"
	 viewBox="0 0 512 512" style="enable-background:new 0 0 512 512;" xml:space="preserve">
<g>
	<g>
		<g>
			<path style="fill:#fff" d="M469.333,76.8H460.8V25.6C460.785,11.468,449.332,0.015,435.2,0H315.733c-14.132,0.015-25.585,11.468-25.6,25.6v8.533
				h-68.267V25.6c-0.015-14.132-11.468-25.585-25.6-25.6H76.8C62.668,0.015,51.215,11.468,51.2,25.6v51.2h-8.533
				C19.114,76.828,0.028,95.914,0,119.467v281.6c0.028,23.553,19.114,42.639,42.667,42.667H179.2V460.8h-59.733
				c-4.713,0-8.533,3.82-8.533,8.533v34.133c0,4.713,3.82,8.533,8.533,8.533h273.067c4.713,0,8.533-3.82,8.533-8.533v-34.133
				c0-4.713-3.821-8.533-8.533-8.533H332.8v-17.067h136.533c23.553-0.028,42.639-19.114,42.667-42.667v-281.6
				C511.972,95.914,492.886,76.828,469.333,76.8z M307.2,25.6c0.006-4.71,3.823-8.527,8.533-8.533H435.2
				c4.711,0.005,8.529,3.822,8.533,8.533v153.6c-0.005,4.711-3.822,8.529-8.533,8.533h-25.6l-0.109,0.022
				c-1.077,0.012-2.141,0.227-3.138,0.634c-0.923,0.587-1.835,1.19-2.736,1.809c-0.803,0.787-1.443,1.726-1.882,2.761
				l-26.301,61.999l-25.567-60.422v-23.87h60.842c8.81-0.01,15.949-7.149,15.958-15.958v-7.425
				c-0.006-16.616-7.854-32.254-21.173-42.189c15.102-16.863,14.363-42.597-1.682-58.566c-16.045-15.969-41.782-16.585-58.573-1.403
				c-4.769-6.876-12.603-10.982-20.971-10.992H307.2V25.6z M356.803,115.915c10.83,4.759,23.164,4.735,33.975-0.066
				c11.586,6.211,18.818,18.289,18.822,31.435v6.317h-59.733v-32.768C351.983,118.933,354.31,117.283,356.803,115.915z
				 M349.867,85.929V67.626c4.015-10.446,14.36-17.064,25.528-16.331c11.167,0.733,20.558,8.647,23.173,19.528
				c2.615,10.881-2.154,22.198-11.768,27.926v0c-0.195,0.1-0.385,0.206-0.572,0.32c-7.739,4.338-17.174,4.354-24.928,0.041
				c-0.276-0.176-0.562-0.337-0.856-0.482C355.62,95.67,351.904,91.208,349.867,85.929z M324.267,51.2
				c4.71,0.006,8.527,3.823,8.533,8.533v187.733c-0.006,4.71-3.823,8.527-8.533,8.533h-34.109c-1.128,0-2.244,0.224-3.285,0.658
				c-0.918,0.589-1.826,1.192-2.726,1.809c-0.802,0.786-1.44,1.723-1.879,2.757l-26.302,62.001l-26.235-62.001
				c-0.44-1.035-1.08-1.973-1.884-2.76c-0.9-0.617-1.81-1.219-2.73-1.807c-1.04-0.434-2.156-0.657-3.283-0.657h-34.102
				c-4.71-0.006-8.527-3.823-8.533-8.533V59.733c0.006-4.71,3.823-8.527,8.533-8.533H324.267z M68.267,25.6
				c0.006-4.71,3.823-8.527,8.533-8.533h119.467c4.71,0.006,8.527,3.823,8.533,8.533v8.533h-17.067
				c-8.368,0.01-16.201,4.116-20.971,10.992c-16.792-15.174-42.523-14.554-58.565,1.411s-16.784,41.693-1.689,58.557
				c-13.319,9.935-21.168,25.573-21.175,42.19v7.425c0.01,8.81,7.149,15.949,15.958,15.958h60.842v23.866L136.5,254.958
				l-26.235-62.001c-0.44-1.035-1.08-1.973-1.884-2.76c-0.406-0.333-0.843-0.628-1.304-0.879c-0.442-0.357-0.92-0.668-1.426-0.928
				c-1.04-0.434-2.156-0.657-3.283-0.657H76.8c-4.71-0.006-8.527-3.823-8.533-8.533V25.6z M151.467,98.693
				c-0.23,0.114-0.451,0.242-0.669,0.374c-7.737,4.333-17.165,4.352-24.919,0.05c-0.236-0.148-0.48-0.286-0.73-0.411
				c-9.61-5.742-14.366-17.069-11.735-27.951s12.036-18.785,23.208-19.503s21.511,5.918,25.512,16.374v18.303
				C160.086,91.245,156.335,95.733,151.467,98.693z M162.133,120.832V153.6H102.4v-6.317c0.005-13.145,7.236-25.223,18.821-31.435
				c10.811,4.801,23.145,4.825,33.974,0.065C157.689,117.282,160.017,118.932,162.133,120.832z M384,477.867v17.067H128v-17.067H384
				z M196.267,460.8v-17.067h119.467V460.8H196.267z M494.933,401.067c-0.015,14.132-11.468,25.585-25.6,25.6H42.667
				c-14.132-0.015-25.585-11.468-25.6-25.6v-25.6h477.867V401.067z M494.933,358.4H17.067V119.467
				c0.015-14.132,11.468-25.585,25.6-25.6H51.2V179.2c0.015,14.132,11.468,25.585,25.6,25.6h19.945l24.309,57.454
				c2.366,6.494,8.535,10.82,15.446,10.833s13.096-4.29,15.487-10.775l10.146-23.98v9.134c0.015,14.132,11.468,25.585,25.6,25.6
				h28.479l24.309,57.454c2.366,6.494,8.535,10.82,15.446,10.833s13.096-4.29,15.487-10.775l24.334-57.513h28.479
				c14.132-0.015,25.585-11.468,25.6-25.6v-9.133l10.121,23.921c2.366,6.494,8.535,10.82,15.446,10.833
				c6.912,0.013,13.096-4.29,15.487-10.775l24.334-57.513H435.2c14.132-0.015,25.585-11.468,25.6-25.6V93.867h8.533
				c14.132,0.015,25.585,11.468,25.6,25.6V358.4z"/>
			<path style="fill:#fff" d="M213.333,230.4h85.333c9.422-0.009,17.057-7.645,17.067-17.067V204.8c0.02-19.055-9.114-36.961-24.552-48.13
				c15.234-14.408,20.143-36.649,12.39-56.131C295.817,81.057,276.968,68.271,256,68.271c-20.968,0-39.817,12.785-47.571,32.267
				c-7.754,19.482-2.844,41.723,12.39,56.131c-15.438,11.17-24.572,29.075-24.552,48.13v8.533
				C196.276,222.755,203.912,230.391,213.333,230.4z M222.82,111.461c3.698-15.327,17.413-26.127,33.18-26.128
				c15.769,0.002,29.485,10.805,33.182,26.135c3.697,15.33-3.588,31.197-17.623,38.386c-9.796,4.906-21.332,4.902-31.125-0.009
				C226.402,142.654,219.122,126.788,222.82,111.461z M213.333,204.8c-0.031-16.074,9.044-30.779,23.426-37.958
				c12.321,5.099,26.163,5.1,38.484,0.002c14.381,7.179,23.454,21.884,23.423,37.957l0,8.533h-85.334L213.333,204.8z"/>
			<path style="fill:#fff" d="M136.533,281.6c-18.851,0-34.133,15.282-34.133,34.133c0.022,18.842,15.291,34.112,34.133,34.133
				c18.851,0,34.133-15.282,34.133-34.133S155.385,281.6,136.533,281.6z M136.533,332.8c-9.426,0-17.067-7.641-17.067-17.067
				c0.009-9.422,7.645-17.057,17.067-17.067c9.426,0,17.067,7.641,17.067,17.067S145.959,332.8,136.533,332.8z"/>
			<path style="fill:#fff" d="M375.467,281.6c-18.851,0-34.133,15.282-34.133,34.133c0.022,18.842,15.291,34.112,34.133,34.133
				c18.851,0,34.133-15.282,34.133-34.133S394.318,281.6,375.467,281.6z M375.467,332.8c-9.426,0-17.067-7.641-17.067-17.067
				c0.009-9.422,7.645-17.057,17.067-17.067c9.426,0,17.067,7.641,17.067,17.067S384.892,332.8,375.467,332.8z"/>
		</g>
	</g>
</g>
<g>
</g>
<g>
</g>
<g>
</g>
<g>
</g>
<g>
</g>
<g>
</g>
<g>
</g>
<g>
</g>
<g>
</g>
<g>
</g>
<g>
</g>
<g>
</g>
<g>
</g>
<g>
</g>
<g>
</g>
</svg>
