<?xml version="1.0" encoding="iso-8859-1"?>
<!-- Generator: Adobe Illustrator 19.0.0, SVG Export Plug-In . SVG Version: 6.00 Build 0)  -->
<svg version="1.1" id="Capa_1" xmlns="http://www.w3.org/2000/svg" xmlns:xlink="http://www.w3.org/1999/xlink" x="0px" y="0px"
	 viewBox="0 0 512.01 512.01" style="enable-background:new 0 0 512.01 512.01;" xml:space="preserve">
<g transform="translate(0 -1)">
	<g>
		<g>
			<path style="fill:#fff" d="M469.338,77.81h-94.481c6.605-22.242,9.661-45.385,9.056-68.579c-0.206-4.408-3.738-7.932-8.146-8.129
				c-3.15-0.129-77.992-3.029-115.754,33.854L216.138,77.81H42.672C19.119,77.838,0.033,96.924,0.005,120.477v281.6
				c0.028,23.553,19.114,42.639,42.667,42.667h136.533v17.067h-59.733c-4.713,0-8.533,3.82-8.533,8.533v34.133
				c0,4.713,3.82,8.533,8.533,8.533h273.067c4.713,0,8.533-3.821,8.533-8.533v-34.133c0-4.713-3.821-8.533-8.533-8.533h-59.733
				v-17.067h136.533c23.553-0.028,42.639-19.114,42.667-42.667v-281.6C511.977,96.924,492.891,77.838,469.338,77.81z
				 M366.892,18.118c-0.201,22.099-4.245,43.995-11.952,64.708h0c-0.061,0.133-0.118,0.259-0.172,0.395
				c-3.025,7.488-7.062,14.527-11.998,20.919l-64.105-62.615C305.631,21.431,348.986,18.437,366.892,18.118z M265.976,52.989
				l65.017,63.504L195.18,249.149l-65.02-63.508L265.976,52.989z M331.52,283.689c1.661,2.563,4.566,4.044,7.616,3.881
				c3.05-0.162,5.781-1.943,7.161-4.668c3.734-7.312,9.265-13.555,16.075-18.142c14.424-9.503,32.898-10.326,48.109-2.142
				c15.211,8.183,24.706,24.053,24.724,41.326l-0.01,0.18c-9.259,3.841-17.313,10.104-23.315,18.132
				c-1.832,2.449-2.213,5.692-0.997,8.499c1.215,2.807,3.841,4.748,6.88,5.087s6.029-0.975,7.833-3.444
				c5.003-6.765,12.074-11.716,20.142-14.104c3.51-1.016,7.146-1.538,10.8-1.55c10.966-0.134,21.454,4.484,28.76,12.664
				s10.714,19.121,9.347,30.003H183.949l75.118-73.371c1.338-1.308,2.209-3.019,2.479-4.871l3.579-24.474
				c0.28-0.464,0.513-0.954,0.696-1.464c4.629-18.813,21.393-32.117,40.766-32.351c19.373-0.234,36.454,12.66,41.537,31.355
				c-7.068,5.716-12.87,12.839-17.037,20.917C329.694,277.87,329.859,281.125,331.52,283.689z M82.384,264.706l7.987-31.208
				l55.664,54.369l-31.947,7.802L82.384,264.706z M99.285,305.065c-0.064,0.064-0.107,0.135-0.172,0.199
				c-4.404,4.304-22.712,10-40.937,14.046c4.117-17.646,9.887-35.296,14.254-39.563c0.161-0.157,0.341-0.267,0.506-0.417
				L99.285,305.065z M82.292,208.539H29.488l73.112-71.413l61.607-8.596L82.292,208.539z M97.979,217.072l19.969-19.503
				l65.02,63.508L163,280.581L97.979,217.072z M171.534,296.103l82.347-80.434l-5.271,36.043l0,0.002v0.002l-3.529,24.132
				l-73.546,71.834V296.103z M17.072,120.477c0.015-14.132,11.468-25.585,25.6-25.6h155.992l-13.877,13.554l-87.323,12.183
				c-1.804,0.25-3.481,1.072-4.783,2.346l-75.608,73.85V120.477z M17.072,225.606h57.704l-9.795,38.27
				c-1.593,1.096-3.091,2.323-4.48,3.668c-12.004,11.729-20.212,52.966-21.733,61.117c-0.466,2.494,0.203,5.066,1.824,7.018
				c1.621,1.952,4.026,3.081,6.564,3.082c0.503,0.001,1.005-0.044,1.5-0.133c8.317-1.483,50.425-9.475,62.379-21.15
				c1.385-1.363,2.652-2.841,3.789-4.418l39.644-9.68v56.031H17.072V225.606z M384.005,478.877v17.067h-256v-17.067H384.005z
				 M196.272,461.81v-17.067h119.467v17.067H196.272z M494.938,402.077c-0.015,14.132-11.468,25.585-25.6,25.6H42.672
				c-14.132-0.015-25.585-11.468-25.6-25.6v-25.6h477.867V402.077z M494.938,315.212c-10.3-9.964-24.069-15.535-38.4-15.535
				c-1.483,0-2.977,0.197-4.467,0.32c-1.176-20.76-12.418-39.638-30.111-50.562c-17.693-10.924-39.606-12.518-58.694-4.268
				c-6.476-17.915-21.123-31.658-39.414-36.981s-38.024-1.587-53.103,10.055l3.25-22.222l75.168-73.421
				c7.951-8.028,14.397-17.417,19.032-27.721h101.139c14.132,0.015,25.585,11.468,25.6,25.6V315.212z"/>
			<path style="fill:#fff" d="M214.963,166.601c14.096,13.611,36.441,13.611,50.537,0c6.757-6.547,10.571-15.554,10.571-24.962
				c0-9.409-3.814-18.415-10.571-24.963c-14.095-13.614-36.44-13.615-50.537-0.004c-6.757,6.548-10.571,15.555-10.571,24.965
				C204.393,151.046,208.206,160.053,214.963,166.601L214.963,166.601z M226.888,128.885c7.443-7.19,19.246-7.189,26.687,0.004
				c3.469,3.335,5.429,7.94,5.429,12.752c0,4.812-1.96,9.417-5.429,12.752c-7.444,7.188-19.243,7.188-26.687,0
				c-3.469-3.336-5.429-7.941-5.429-12.754S223.419,132.221,226.888,128.885z"/>
		</g>
	</g>
</g>
<g>
</g>
<g>
</g>
<g>
</g>
<g>
</g>
<g>
</g>
<g>
</g>
<g>
</g>
<g>
</g>
<g>
</g>
<g>
</g>
<g>
</g>
<g>
</g>
<g>
</g>
<g>
</g>
<g>
</g>
</svg>
