<?xml version="1.0" encoding="iso-8859-1"?>
<!-- Generator: Adobe Illustrator 19.0.0, SVG Export Plug-In . SVG Version: 6.00 Build 0)  -->
<svg version="1.1" id="Capa_1" xmlns="http://www.w3.org/2000/svg" xmlns:xlink="http://www.w3.org/1999/xlink" x="0px" y="0px"
	 viewBox="0 0 504.055 504.055" style="enable-background:new 0 0 504.055 504.055;" xml:space="preserve">
<g>
	<g>
		<g>
			<path style="fill:#fff" d="M461.864,75.99H318.592c3.438-25.887-8.444-51.42-30.464-65.46s-50.182-14.04-72.201,0s-33.902,39.573-30.464,65.46
				H42.192C19.025,76.017,0.252,94.79,0.224,117.957v276.984c0.027,23.167,18.801,41.94,41.967,41.967h134.295v16.787h-58.754
				c-2.226-0.001-4.361,0.884-5.936,2.458c-1.574,1.574-2.458,3.709-2.458,5.936v33.574c-0.001,2.226,0.884,4.361,2.458,5.936
				s3.709,2.458,5.936,2.458h268.59c2.226,0.001,4.362-0.884,5.936-2.458s2.458-3.709,2.458-5.936v-33.574
				c0.001-2.226-0.884-4.362-2.458-5.936c-1.574-1.574-3.709-2.458-5.936-2.458h-58.754v-16.787h134.295
				c23.167-0.027,41.94-18.801,41.967-41.967V117.957C503.804,94.79,485.03,76.017,461.864,75.99z M252.028,17.236
				c27.813,0,50.361,22.547,50.361,50.361s-22.547,50.361-50.361,50.361s-50.361-22.547-50.361-50.361
				C201.697,39.795,224.227,17.266,252.028,17.236z M319.175,201.891H184.88c0.042-37.067,30.081-67.105,67.148-67.148
				C289.095,134.786,319.133,164.824,319.175,201.891z M377.929,470.482v16.787H126.126v-16.787H377.929z M193.274,453.695v-16.787
				h117.508v16.787H193.274z M487.044,394.941c-0.015,13.9-11.28,25.165-25.18,25.18H42.192c-13.9-0.015-25.165-11.28-25.18-25.18
				v-25.18h470.033V394.941z M487.044,352.973H17.011V117.957c0.015-13.9,11.28-25.165,25.18-25.18h147.632
				c5.555,13.605,15.401,25.025,28.04,32.523c-30.234,13.492-49.724,43.484-49.771,76.592h-16.787c-4.636,0-8.393,3.758-8.393,8.393
				s3.758,8.393,8.393,8.393h201.443c4.636,0,8.393-3.758,8.393-8.393s-3.758-8.393-8.393-8.393h-16.787
				c-0.047-33.108-19.536-63.1-49.77-76.592c12.639-7.498,22.484-18.917,28.039-32.523h147.632c13.9,0.015,25.165,11.28,25.18,25.18
				V352.973z"/>
			<path style="fill:#fff" d="M299.347,267.605l-27.59-3.832l-12.271-23.762c-1.587-2.6-4.413-4.186-7.459-4.186s-5.872,1.586-7.459,4.186
				l-12.271,23.762l-27.59,3.832c-3.206,0.448-5.869,2.7-6.844,5.787s-0.089,6.46,2.279,8.668l19.73,18.385l-4.639,25.865
				c-0.562,3.13,0.692,6.308,3.24,8.211s5.952,2.202,8.793,0.773l24.762-12.443l24.762,12.443c2.841,1.429,6.245,1.129,8.793-0.773
				c2.548-1.902,3.802-5.081,3.24-8.211l-4.639-25.865l19.73-18.385c2.367-2.208,3.254-5.581,2.279-8.668
				C305.217,270.304,302.554,268.053,299.347,267.605z M269.389,291.285c-2.087,1.944-3.044,4.815-2.541,7.623l2.484,13.852
				l-13.533-6.803c-2.372-1.191-5.168-1.191-7.541,0l-13.533,6.803l2.484-13.852c0.503-2.808-0.454-5.679-2.541-7.623l-10.173-9.479
				l14.426-2c2.701-0.379,5.051-2.044,6.303-4.467l6.803-13.18l6.803,13.18c1.252,2.423,3.602,4.089,6.303,4.467l14.426,2
				L269.389,291.285z"/>
			<path style="fill:#fff" d="M169.249,267.605l-27.59-3.832l-12.271-23.762c-1.587-2.6-4.413-4.186-7.459-4.186c-3.046,0-5.872,1.586-7.459,4.186
				l-12.27,23.762l-27.59,3.832c-3.206,0.448-5.869,2.7-6.844,5.787c-0.975,3.087-0.088,6.46,2.279,8.668l19.73,18.385
				l-4.639,25.865c-0.562,3.13,0.692,6.308,3.24,8.211c2.548,1.902,5.952,2.202,8.793,0.773l24.762-12.443l24.762,12.443
				c2.841,1.429,6.245,1.129,8.793-0.773s3.802-5.081,3.24-8.211l-4.639-25.865l19.73-18.385c2.367-2.208,3.254-5.581,2.279-8.668
				C175.118,270.304,172.455,268.053,169.249,267.605z M139.29,291.285c-2.087,1.944-3.044,4.815-2.541,7.623l2.484,13.852
				l-13.533-6.803c-2.373-1.191-5.168-1.191-7.541,0l-13.533,6.803l2.484-13.852c0.503-2.808-0.454-5.679-2.541-7.623l-10.172-9.479
				l14.426-2c2.701-0.379,5.051-2.044,6.303-4.467l6.803-13.18l6.803,13.18c1.252,2.423,3.602,4.089,6.303,4.467l14.426,2
				L139.29,291.285z"/>
			<path style="fill:#fff" d="M429.446,267.605l-27.59-3.832l-12.271-23.762c-1.587-2.6-4.413-4.186-7.459-4.186s-5.872,1.586-7.459,4.186
				l-12.27,23.762l-27.59,3.832c-3.206,0.448-5.869,2.7-6.844,5.787c-0.975,3.087-0.089,6.46,2.279,8.668l19.729,18.385
				l-4.639,25.865c-0.562,3.13,0.692,6.308,3.24,8.211c2.548,1.902,5.952,2.202,8.793,0.773l24.762-12.443l24.762,12.443
				c2.841,1.429,6.245,1.129,8.793-0.773s3.802-5.081,3.24-8.211l-4.639-25.865l19.73-18.385c2.367-2.208,3.254-5.581,2.279-8.668
				C435.315,270.304,432.652,268.053,429.446,267.605z M399.487,291.285c-2.087,1.944-3.044,4.815-2.541,7.623l2.484,13.852
				l-13.533-6.803c-2.373-1.191-5.169-1.191-7.541,0l-13.533,6.803l2.484-13.852c0.503-2.808-0.454-5.679-2.541-7.623l-10.172-9.479
				l14.426-2c2.701-0.379,5.051-2.044,6.303-4.467l6.803-13.18l6.803,13.18c1.252,2.423,3.602,4.089,6.303,4.467l14.426,2
				L399.487,291.285z"/>
		</g>
	</g>
</g>
<g>
</g>
<g>
</g>
<g>
</g>
<g>
</g>
<g>
</g>
<g>
</g>
<g>
</g>
<g>
</g>
<g>
</g>
<g>
</g>
<g>
</g>
<g>
</g>
<g>
</g>
<g>
</g>
<g>
</g>
</svg>
